<svg width="112" height="104" viewBox="0 0 112 104" fill="none" xmlns="http://www.w3.org/2000/svg">
<path d="M100.953 28.8032C99.4871 25.6511 97.3731 22.7946 94.7297 20.3938C92.0843 17.9858 88.9652 16.0722 85.5422 14.7571C81.9927 13.388 78.1857 12.6872 74.3422 12.6954C68.95 12.6954 63.6891 14.0665 59.1172 16.6563C58.0234 17.2759 56.9844 17.9563 56 18.6977C55.0156 17.9563 53.9766 17.2759 52.8828 16.6563C48.3109 14.0665 43.05 12.6954 37.6578 12.6954C33.775 12.6954 30.0125 13.386 26.4578 14.7571C23.0234 16.0774 19.9281 17.9766 17.2703 20.3938C14.6234 22.7919 12.509 25.649 11.0469 28.8032C9.52656 32.0837 8.75 35.5673 8.75 39.1524C8.75 42.5344 9.49375 46.0587 10.9703 49.6438C12.2063 52.6399 13.9781 55.7477 16.2422 58.886C19.8297 63.8524 24.7625 69.0321 30.8875 74.2829C41.0375 82.9868 51.0891 88.9993 51.5156 89.243L54.1078 90.7868C55.2562 91.4673 56.7328 91.4673 57.8812 90.7868L60.4734 89.243C60.9 88.9891 70.9406 82.9868 81.1016 74.2829C87.2266 69.0321 92.1594 63.8524 95.7469 58.886C98.0109 55.7477 99.7937 52.6399 101.019 49.6438C102.495 46.0587 103.239 42.5344 103.239 39.1524C103.25 35.5673 102.473 32.0837 100.953 28.8032Z" fill="black"/>
</svg>
