<svg width="53" height="52" viewBox="0 0 53 52" fill="none" xmlns="http://www.w3.org/2000/svg">
<path d="M43.1765 48.75H39.902V43.875C39.8994 41.7209 39.036 39.6558 37.5014 38.1326C35.9667 36.6094 33.886 35.7526 31.7157 35.75H21.8922C19.7219 35.7526 17.6412 36.6094 16.1065 38.1326C14.5718 39.6558 13.7085 41.7209 13.7059 43.875V48.75H10.4314V43.875C10.4349 40.8592 11.6435 37.9679 13.792 35.8355C15.9406 33.703 18.8537 32.5034 21.8922 32.5H31.7157C34.7542 32.5034 37.6673 33.703 39.8158 35.8355C41.9644 37.9679 43.173 40.8592 43.1765 43.875V48.75ZM8.79417 9.75C8.35995 9.75 7.94351 9.92121 7.63646 10.226C7.32942 10.5307 7.15692 10.944 7.15692 11.375V26H10.4314V11.375C10.4314 10.944 10.2589 10.5307 9.95188 10.226C9.64484 9.92121 9.2284 9.75 8.79417 9.75Z" fill="black"/>
<path d="M7.15692 3.25V6.5H15.3432V17.875C15.3432 20.8918 16.5507 23.7851 18.7 25.9183C20.8493 28.0516 23.7644 29.25 26.8039 29.25C29.8435 29.25 32.7586 28.0516 34.9079 25.9183C37.0572 23.7851 38.2647 20.8918 38.2647 17.875V6.5H46.451V3.25H7.15692ZM18.6177 6.5H34.9902V11.375H18.6177V6.5ZM26.8039 26C24.6328 26 22.5506 25.144 21.0154 23.6202C19.4802 22.0965 18.6177 20.0299 18.6177 17.875V14.625H34.9902V17.875C34.9902 20.0299 34.1277 22.0965 32.5925 23.6202C31.0573 25.144 28.9751 26 26.8039 26Z" fill="black"/>
</svg>
