<svg width="30" height="30" viewBox="0 0 30 30" fill="none" xmlns="http://www.w3.org/2000/svg">
<path d="M5.80511 6H25.6801C27.5551 6 28.5001 6.885 28.5001 8.685V21.315C28.5001 23.1 27.5551 24 25.6801 24H5.80511C3.93011 24 2.98511 23.1 2.98511 21.315V8.685C2.98511 6.885 3.93011 6 5.80511 6ZM15.7351 18.9L25.8451 10.605C26.2051 10.305 26.4901 9.615 26.0401 9C25.6051 8.385 24.8101 8.37 24.2851 8.745L15.7351 14.535L7.20011 8.745C6.67511 8.37 5.88011 8.385 5.44511 9C4.99511 9.615 5.28011 10.305 5.64011 10.605L15.7351 18.9Z" fill="#000000"/>
</svg>
