<svg width="71" height="63" viewBox="0 0 71 63" fill="none" xmlns="http://www.w3.org/2000/svg">
<path d="M59.3146 28.875H11.6854C10.1333 28.875 8.875 29.9915 8.875 31.3687V31.6313C8.875 33.0085 10.1333 34.125 11.6854 34.125H59.3146C60.8667 34.125 62.125 33.0085 62.125 31.6313V31.3687C62.125 29.9915 60.8667 28.875 59.3146 28.875Z" fill="black"/>
<path d="M59.3146 42H11.6854C10.1333 42 8.875 43.1165 8.875 44.4938V44.7562C8.875 46.1335 10.1333 47.25 11.6854 47.25H59.3146C60.8667 47.25 62.125 46.1335 62.125 44.7562V44.4938C62.125 43.1165 60.8667 42 59.3146 42Z" fill="black"/>
<path d="M59.3146 15.75H11.6854C10.1333 15.75 8.875 16.8665 8.875 18.2437V18.5063C8.875 19.8835 10.1333 21 11.6854 21H59.3146C60.8667 21 62.125 19.8835 62.125 18.5063V18.2437C62.125 16.8665 60.8667 15.75 59.3146 15.75Z" fill="black"/>
</svg>
