<svg width="157" height="92" viewBox="0 0 157 92" fill="none" xmlns="http://www.w3.org/2000/svg">
<path opacity="0.3" d="M107.937 46C120.563 46 130.833 39.9817 130.833 32.5834C130.833 25.185 120.563 19.1667 107.937 19.1667C95.3121 19.1667 85.0417 25.185 85.0417 32.5834C85.0417 39.9817 95.3121 46 107.937 46Z" fill="black"/>
<path opacity="0.3" d="M98.1904 72.8334C101.803 72.8334 104.732 71.1171 104.732 69C104.732 66.8829 101.803 65.1667 98.1904 65.1667C94.5775 65.1667 91.6487 66.8829 91.6487 69C91.6487 71.1171 94.5775 72.8334 98.1904 72.8334Z" fill="black"/>
<path opacity="0.3" d="M45.7917 61.3333C53.0174 61.3333 58.875 57.9008 58.875 53.6667C58.875 49.4325 53.0174 46 45.7917 46C38.566 46 32.7083 49.4325 32.7083 53.6667C32.7083 57.9008 38.566 61.3333 45.7917 61.3333Z" fill="black"/>
<path d="M45.7917 69C60.2487 69 71.9583 62.1383 71.9583 53.6667C71.9583 45.195 60.2487 38.3333 45.7917 38.3333C31.3346 38.3333 19.625 45.195 19.625 53.6667C19.625 62.1383 31.3346 69 45.7917 69ZM45.7917 46C52.9875 46 58.875 49.45 58.875 53.6667C58.875 57.8833 52.9875 61.3333 45.7917 61.3333C38.5958 61.3333 32.7083 57.8833 32.7083 53.6667C32.7083 49.45 38.5958 46 45.7917 46ZM117.815 69C117.815 62.675 108.984 57.5 98.1904 57.5C87.3967 57.5 78.5654 62.675 78.5654 69C78.5654 75.325 87.3967 80.5 98.1904 80.5C108.984 80.5 117.815 75.325 117.815 69ZM91.6488 69C91.6488 66.8917 94.5925 65.1667 98.1904 65.1667C101.788 65.1667 104.732 66.8917 104.732 69C104.732 71.1083 101.788 72.8333 98.1904 72.8333C94.5925 72.8333 91.6488 71.1083 91.6488 69ZM107.938 53.6667C127.759 53.6667 143.917 44.1983 143.917 32.5833C143.917 20.9683 127.759 11.5 107.938 11.5C88.1162 11.5 71.9583 20.9683 71.9583 32.5833C71.9583 44.1983 88.1162 53.6667 107.938 53.6667ZM107.938 19.1667C120.563 19.1667 130.833 25.185 130.833 32.5833C130.833 39.9817 120.563 46 107.938 46C95.3121 46 85.0417 39.9817 85.0417 32.5833C85.0417 25.185 95.3121 19.1667 107.938 19.1667Z" fill="black"/>
</svg>
