<svg width="159" height="92" viewBox="0 0 159 92" fill="none" xmlns="http://www.w3.org/2000/svg">
<g clip-path="url(#clip0_9_101)">
<mask id="mask0_9_101" style="mask-type:alpha" maskUnits="userSpaceOnUse" x="19" y="10" width="122" height="72">
<path d="M56.7136 11.7336H102.711V28.8339H56.7136V11.7336ZM20.5729 63.0346H66.5701V80.1349H20.5729V63.0346ZM92.8542 63.0346H138.851V80.1349H92.8542V63.0346Z" fill="#555555" stroke="white" stroke-width="2.5" stroke-linejoin="round"/>
<path d="M43.5715 63.0346V45.9342H115.853V63.0346M79.7121 30.7339V45.9342V30.7339Z" stroke="white" stroke-width="2.5" stroke-linecap="round" stroke-linejoin="round"/>
</mask>
<g mask="url(#mask0_9_101)">
</g>
<path d="M113 25.4375C110.403 25.4367 107.875 26.0593 105.798 27.2119C103.72 28.3645 102.204 29.9846 101.478 31.8289C100.752 33.6732 100.855 35.642 101.772 37.4392C102.688 39.2365 104.369 40.7653 106.561 41.7957L98.7301 62.0649C98.4871 62.0534 98.2436 62.0474 98 62.0469C95.4187 62.0448 92.906 62.6617 90.8388 63.805L76.3724 54.889C77.0573 53.3862 77.1852 51.7751 76.7427 50.2233C76.3003 48.6715 75.3037 47.2358 73.8567 46.0654C72.4096 44.895 70.565 44.0328 68.5146 43.5684C66.4643 43.1041 64.2831 43.0545 62.1981 43.4249C60.1131 43.7954 58.2004 44.5722 56.6589 45.6747C55.1175 46.7772 54.0036 48.165 53.4333 49.6938C52.8629 51.2225 52.8568 52.8364 53.4157 54.3675C53.9745 55.8986 55.0779 57.291 56.6111 58.3998L48.1188 70.9618C47.7469 70.9357 47.3736 70.9224 47 70.9219C44.1252 70.9192 41.3443 71.6788 39.1622 73.063C36.9801 74.4472 35.5413 76.3642 35.1071 78.4659C34.6729 80.5677 35.2719 82.715 36.7955 84.518C38.3192 86.3209 40.6664 87.6601 43.4111 88.2925C46.1558 88.9248 49.1161 88.8084 51.7547 87.9643C54.3932 87.1203 56.5351 85.6045 57.7916 83.6921C59.0481 81.7798 59.3358 79.5977 58.6026 77.5418C57.8694 75.486 56.1639 73.6927 53.7956 72.4875L61.8206 60.6187C63.77 61.0164 65.8238 61.0424 67.7905 60.6943C69.7571 60.3462 71.5725 59.6353 73.0672 58.6279L87.0734 67.2605C86.1223 68.8107 85.7941 70.5304 86.1278 72.2147C86.4615 73.899 87.4432 75.4768 88.9557 76.76C90.4682 78.0431 92.4477 78.9775 94.6583 79.4517C96.8689 79.9258 99.2173 79.9198 101.423 79.4343C103.629 78.9488 105.6 78.0043 107.101 76.7135C108.601 75.4226 109.568 73.8399 109.886 72.1539C110.204 70.4679 109.86 68.7499 108.894 67.2046C107.928 65.6594 106.382 64.3521 104.44 63.4387L112.27 43.1695C112.512 43.1803 112.755 43.1875 113 43.1875C116.183 43.1875 119.235 42.2525 121.485 40.5881C123.736 38.9237 125 36.6663 125 34.3125C125 31.9587 123.736 29.7013 121.485 28.0369C119.235 26.3725 116.183 25.4375 113 25.4375ZM47 84.2344C45.8133 84.2344 44.6533 83.9741 43.6666 83.4865C42.6799 82.9989 41.9108 82.3059 41.4567 81.495C41.0026 80.6842 40.8838 79.792 41.1153 78.9312C41.3468 78.0704 41.9182 77.2797 42.7574 76.6591C43.5965 76.0385 44.6656 75.6159 45.8295 75.4446C46.9933 75.2734 48.1997 75.3613 49.2961 75.6972C50.3925 76.033 51.3295 76.6018 51.9888 77.3315C52.6481 78.0613 53 78.9192 53 79.7969C52.9982 80.9734 52.3655 82.1013 51.2407 82.9332C50.1158 83.7651 48.5907 84.2331 47 84.2344ZM65 56.5C63.8133 56.5 62.6533 56.2397 61.6666 55.7521C60.6799 55.2645 59.9108 54.5715 59.4567 53.7607C59.0026 52.9498 58.8838 52.0576 59.1153 51.1968C59.3468 50.336 59.9182 49.5453 60.7574 48.9247C61.5965 48.3041 62.6656 47.8815 63.8295 47.7103C64.9933 47.539 66.1997 47.6269 67.2961 47.9628C68.3925 48.2986 69.3295 48.8674 69.9888 49.5972C70.6481 50.3269 71 51.1848 71 52.0625C70.9982 53.239 70.3655 54.3669 69.2407 55.1988C68.1158 56.0307 66.5907 56.4987 65 56.5ZM98 75.3594C96.8133 75.3594 95.6533 75.0991 94.6666 74.6115C93.6799 74.1239 92.9109 73.4309 92.4567 72.62C92.0026 71.8092 91.8838 70.917 92.1153 70.0562C92.3468 69.1954 92.9182 68.4047 93.7574 67.7841C94.5965 67.1635 95.6656 66.7409 96.8295 66.5696C97.9933 66.3984 99.1997 66.4863 100.296 66.8222C101.392 67.158 102.33 67.7268 102.989 68.4565C103.648 69.1863 104 70.0442 104 70.9219C103.998 72.0984 103.366 73.2263 102.241 74.0582C101.116 74.8901 99.5908 75.3581 98 75.3594ZM113 38.75C111.813 38.75 110.653 38.4897 109.667 38.0021C108.68 37.5145 107.911 36.8215 107.457 36.0107C107.003 35.1998 106.884 34.3076 107.115 33.4468C107.347 32.586 107.918 31.7953 108.757 31.1747C109.596 30.5541 110.666 30.1315 111.829 29.9603C112.993 29.789 114.2 29.8769 115.296 30.2128C116.392 30.5486 117.33 31.1174 117.989 31.8472C118.648 32.5769 119 33.4348 119 34.3125C118.998 35.489 118.366 36.6169 117.241 37.4488C116.116 38.2807 114.591 38.7487 113 38.75Z" fill="black"/>
</g>
<defs>
<clipPath id="clip0_9_101">
<rect width="157.705" height="91.2018" fill="white" transform="translate(0.859863 0.333374)"/>
</clipPath>
</defs>
</svg>
