<svg width="100" height="78" viewBox="0 0 100 78" fill="none" xmlns="http://www.w3.org/2000/svg">
<g clip-path="url(#clip0_12_35)">
<path d="M50.0123 6.67493e-06C47.5404 0.000418362 45.1241 0.572469 43.069 1.64384C41.0139 2.71521 39.4122 4.2378 38.4663 6.01912C37.5204 7.80045 37.2729 9.76052 37.755 11.6516C38.2371 13.5426 39.4271 15.2797 41.1748 16.6433L69.7789 38.9545L51.2539 53.7128L58.5248 59.6798C59.6446 60.3628 60.6277 61.1723 61.4414 62.0815L61.4914 62.1173L61.4873 62.1238C63.1407 63.9891 64.0258 66.2032 64.0248 68.471C64.0245 69.3244 63.8987 70.175 63.6498 71.006L95.9414 46.1533C96.0706 46.059 96.2206 45.9908 96.3498 45.8933C96.4456 45.8185 96.5081 45.7243 96.5998 45.6463C98.8204 43.806 100.036 41.364 99.9894 38.837C99.9427 36.3101 98.6374 33.8964 96.3498 32.1068L58.8498 2.85676C57.6907 1.94988 56.3132 1.23064 54.7966 0.740379C53.2799 0.250118 51.654 -0.00149418 50.0123 6.67493e-06ZM35.9581 6.93226L3.66642 31.8793C1.32609 33.7063 0.0114746 36.1833 0.0114746 38.766C0.0114746 41.3487 1.32609 43.8257 3.66642 45.6528L35.7498 70.8403C35.5347 70.0617 35.4271 69.2674 35.4289 68.471C35.43 65.5139 36.9365 62.6782 39.6173 60.5872C42.298 58.4962 45.9336 57.3211 49.7248 57.3203C50.8848 57.3204 52.0405 57.4306 53.1664 57.6485L30.1539 38.766L48.3664 24.5538L39.6998 17.7938C35.9373 14.8558 34.7289 10.699 35.9581 6.93226ZM49.7248 58.9453C46.4861 58.9461 43.3805 59.95 41.0904 61.7362C38.8004 63.5225 37.5134 65.9449 37.5123 68.471C37.5123 70.9977 38.7988 73.4209 41.089 75.2079C43.3791 76.9948 46.4854 77.9991 49.7248 78C52.9648 78 56.0722 76.9961 58.3632 75.209C60.6543 73.422 61.9414 70.9983 61.9414 68.471C61.9403 65.9443 60.6527 63.5214 58.3618 61.7351C56.0708 59.9488 52.9641 58.9453 49.7248 58.9453Z" fill="black"/>
</g>
<defs>
<clipPath id="clip0_12_35">
<rect width="100" height="78" fill="white"/>
</clipPath>
</defs>
</svg>
