<svg width="106" height="88" viewBox="0 0 106 88" fill="none" xmlns="http://www.w3.org/2000/svg">
<path d="M53 0C23.7175 0 0 20.188 0 45.1129C0 65.0754 15.1712 81.9364 36.2388 87.9138C38.8887 88.3086 39.8825 86.9552 39.8825 85.771C39.8825 84.6995 39.8162 81.1469 39.8162 77.3687C26.5 79.4551 23.055 74.6055 21.995 72.0679C21.3988 70.7709 18.815 66.7671 16.5625 65.6957C14.7075 64.8498 12.0575 62.7634 16.4963 62.707C20.67 62.6506 23.6513 65.9777 24.645 67.331C29.415 74.1544 37.0338 72.2371 40.0813 71.0529C40.545 68.1205 41.9362 66.1468 43.46 65.019C31.6675 63.8912 19.345 60.0002 19.345 42.7445C19.345 37.8385 21.3988 33.7783 24.7775 30.6204C24.2475 29.4926 22.3925 24.8685 25.3075 18.6655C25.3075 18.6655 29.7463 17.4813 39.8825 23.2895C44.1225 22.2745 48.6275 21.767 53.1325 21.767C57.6375 21.767 62.1425 22.2745 66.3825 23.2895C76.5188 17.4249 80.9575 18.6655 80.9575 18.6655C83.8725 24.8685 82.0175 29.4926 81.4875 30.6204C84.8662 33.7783 86.92 37.7821 86.92 42.7445C86.92 60.0566 74.5312 63.8912 62.7388 65.019C64.66 66.4288 66.3163 69.1356 66.3163 73.3649C66.3163 79.3988 66.25 84.2484 66.25 85.771C66.25 86.9552 67.2438 88.3649 69.8938 87.9138C80.4158 84.8912 89.559 79.1356 96.0362 71.4575C102.513 63.7794 105.998 54.5654 106 45.1129C106 20.188 82.2825 0 53 0Z" fill="black"/>
</svg>
